<svg width="142" height="83" viewBox="0 0 142 83" fill="none" xmlns="http://www.w3.org/2000/svg">
  <path
    d="M57.9716 50.4179C63.374 37.3275 68.2563 24.2565 68.9983 9.92789C69.1303 7.37798 68.2646 0.137761 67.234 2.47385C63.6365 10.6281 62.8668 21.6524 62.2941 30.3052C62.0264 34.3485 60.1599 49.9495 64.7199 53.77C66.5969 55.3427 68.239 49.1863 68.3808 48.4772C68.9025 45.8687 67.3198 47.4009 66.7047 48.4772C65.1779 51.1491 65.1082 53.89 64.323 56.7693"
    stroke="white" strokeWidth="3" strokeLinecap="round"/>
  <path
    d="M79.4075 51.2118C81.9795 47.2709 87.439 39.1248 82.936 34.363C77.6303 28.7524 72.4045 49.4703 74.0706 53.2407C77.3561 60.6765 92.0081 53.1377 97.6677 52.0058"
    stroke="white" strokeWidth="3" strokeLinecap="round"/>
  <path
    d="M99.2555 33.7455C99.2926 33.7811 102.863 36.9141 101.549 34.8923C98.71 30.5244 97.1337 39.3443 97.2266 40.538C97.9582 49.9353 104.293 40.0235 105.43 37.0977C105.899 35.8928 106.385 32.1142 106.577 33.3927C107.586 40.1201 108.735 46.1101 111.032 52.6232C113.481 59.5671 117.811 66.2311 119.853 73.2652C120.426 75.2363 113.826 73.6787 113.37 73.574C93.457 68.9994 110.909 44.1427 116.722 34.5395"
    stroke="white" strokeWidth="3" strokeLinecap="round"/>
  <path
    d="M120.691 26.6002C120.961 31.0785 121.369 40.8266 127.484 41.6848C134.569 42.6792 135.05 32.0236 134.541 27.6588C133.643 19.9597 134.868 29.1419 135.511 31.452C136.903 36.4461 139.013 41.3196 139.746 46.4483"
    stroke="white" strokeWidth="3" strokeLinecap="round"/>
  <path
    d="M2 39.4095C2.97215 41.3538 3.44833 45.176 4.02223 47.0434C6.49602 55.0927 9.60146 62.8943 12.4651 70.8046C13.8291 74.5726 15.1101 77.7319 17.0151 81.2697"
    stroke="white" strokeWidth="3" strokeLinecap="round"/>
  <path
    d="M11.1 62.1596C14.0276 57.0552 16.9737 52.332 17.0151 46.2851C17.0336 43.576 17.0018 40.772 16.2567 38.1456C14.7338 32.7772 15.6238 38.9326 16.3326 40.9261C20.9629 53.9489 27.699 66.2373 33.8502 78.5397"
    stroke="white" strokeWidth="3" strokeLinecap="round"/>
  <path
    d="M42.9623 50.4108C45.6039 48.7298 40.9308 51.1371 40.1312 52.5847C38.5305 55.4824 36.2908 62.3141 40.0806 64.7181C43.6796 67.001 45.9452 60.0411 46.3495 57.9942C46.9397 55.0065 46.6586 51.7506 45.7934 48.8435C45.2267 46.9394 45.5141 48.725 45.844 49.6524C47.7283 54.95 49.7849 60.3017 52.0623 65.4259"
    stroke="white" strokeWidth="3" strokeLinecap="round"/>
</svg>
